REM MD5 ea2182652787b7b2e964d16f866d912c
FILE "Tekken 2 (Japan) (Rev 1).bin" BINARY
  TRACK 01 MODE2/2352
    INDEX 01 00:00:00
  TRACK 02 AUDIO
    INDEX 00 67:49:42
    INDEX 01 67:51:42
  TRACK 03 AUDIO
    INDEX 00 70:20:07
    INDEX 01 70:22:07
REM LEADOUT 70:56:07
